<mxfile host="app.diagrams.net" agent="Mozilla/5.0 (Windows NT 10.0; Win64; x64) AppleWebKit/537.36 (KHTML, like Gecko) Chrome/129.0.0.0 Safari/537.36" version="24.8.0">
  <diagram name="Trang-1" id="DE8pqIgVtdc-5F2qJ1p6">
    <mxGraphModel dx="2261" dy="780" grid="1" gridSize="10" guides="1" tooltips="1" connect="1" arrows="1" fold="1" page="1" pageScale="1" pageWidth="827" pageHeight="1169" math="0" shadow="0">
      <root>
        <mxCell id="0" />
        <mxCell id="1" parent="0" />
        <mxCell id="EQ2ouVLOCZ-GTFMunYQr-11" value="&lt;h1 style=&quot;margin-top: 0px;&quot;&gt;FR&lt;/h1&gt;&lt;p style=&quot;font-size: 15px;&quot;&gt;- identify roads, routes&lt;/p&gt;&lt;p style=&quot;font-size: 15px;&quot;&gt;- calculate distance and ETA between 2 points&lt;/p&gt;&lt;p style=&quot;font-size: 15px;&quot;&gt;- Pluggable&amp;nbsp;&lt;/p&gt;&lt;p style=&quot;font-size: 15px;&quot;&gt;&lt;br&gt;&lt;/p&gt;" style="text;html=1;whiteSpace=wrap;overflow=hidden;rounded=0;" vertex="1" parent="1">
          <mxGeometry x="-820" width="200" height="170" as="geometry" />
        </mxCell>
        <mxCell id="EQ2ouVLOCZ-GTFMunYQr-12" value="&lt;h1 style=&quot;margin-top: 0px;&quot;&gt;NFR&lt;/h1&gt;&lt;p&gt;- HA&lt;/p&gt;&lt;p&gt;&lt;br&gt;&lt;/p&gt;" style="text;html=1;whiteSpace=wrap;overflow=hidden;rounded=0;" vertex="1" parent="1">
          <mxGeometry x="-820" y="230" width="180" height="120" as="geometry" />
        </mxCell>
      </root>
    </mxGraphModel>
  </diagram>
</mxfile>
